<?xml version="1.0" encoding="UTF-8"?>
<svg width="148px" height="40px" viewBox="0 0 148 40" version="1.1" xmlns="http://www.w3.org/2000/svg" xmlns:xlink="http://www.w3.org/1999/xlink">
    <!-- Generator: Sketch 49 (51002) - http://www.bohemiancoding.com/sketch -->
    <title>logo/nuvemG</title>
    <desc>Created with Sketch.</desc>
    <defs></defs>
    <g id="Page-1" stroke="none" stroke-width="1" fill="none" fill-rule="evenodd">
        <g id="OnePage-Nuvem" transform="translate(-326.000000, -18.000000)" fill="#FFFFFF">
            <g id="Inicio" transform="translate(0.000000, -1.000000)">
                <g id="Header" transform="translate(277.000000, 0.000000)">
                    <g id="logo/nuvem-branco" transform="translate(49.000000, 19.000000)">
                        <g id="Logo">
                            <path d="M0,15.4624233 C0,7.00312333 6.77913787,0.123356667 15.119972,0.123356667 C21.8991098,0.123356667 27.6450815,4.65895667 29.5604054,10.8765567 C31.5502778,9.11819 34.1470517,8.02295667 37.0190818,8.02295667 C42.311072,8.02295667 46.745754,11.7175567 47.9805836,16.6601233 C49.6187399,15.4624233 51.7357271,14.74999 54.0285724,14.74999 C59.3712174,14.74999 63.6051918,19.7689233 63.6051918,24.5336233 C63.6051918,24.9164233 63.6051918,24.5587567 63.6051918,24.5336233 L63.6051918,38.2419233 C63.6051918,39.2105233 62.8233879,40.00029 61.8408765,40.00029 L1.76431531,40.00029 C0.78084811,40.00029 0,39.2105233 0,38.2419233" id="Fill-1"></path>
                            <path d="M0,19.2269417 C0,10.8022433 6.78284778,3.95061728 15.1282464,3.95061728 C21.9110942,3.95061728 27.6602104,8.46766507 29.5765824,14.6588702 C31.5675438,12.9086586 34.1657388,11.8169424 37.0393406,11.8169424 C42.3342269,11.8169424 46.7713358,15.4964302 48.0068412,20.4197427 C49.6458939,19.2269417 51.7640397,18.5164598 54.0581397,18.5164598 C59.4037085,18.5164598 63.64,23.5158266 63.64,28.2610373 C63.64,28.6413088 63.64,28.2860678 63.64,28.2610373 L63.64,34.2991711 C63.64,35.2628465 62.8577683,36.0493827 61.8747192,36.0493827 L1.76528084,36.0493827 C0.781275432,36.0493827 0,35.2628465 0,34.2991711" id="Fill-4"></path>
                            <path d="M0,24.0549701 C0,15.6910694 6.78284778,8.88888889 15.1282464,8.88888889 C21.9110942,8.88888889 27.6602104,13.3733389 29.5765824,19.5198646 C31.5675438,17.7822835 34.1657388,16.6984459 37.0393406,16.6984459 C42.3342269,16.6984459 46.7713358,20.3513802 48.0068412,25.2391632 C49.6458939,24.0549701 51.7640397,23.3496155 54.0581397,23.3496155 C59.4037085,23.3496155 63.64,28.3129039 63.64,33.0229145 C63.64,33.4013975 63.64,33.0496759 63.64,33.0229145 L63.64,38.2614632 C63.64,39.2191399 62.8577683,40 61.8747192,40 L1.76528084,40 C0.781275432,40 0,39.2191399 0,38.2614632" id="Fill-6"></path>
                            <path d="M0,28.2284484 C0,19.7416427 6.78284778,12.8395062 15.1282464,12.8395062 C21.9110942,12.8395062 27.6602104,17.3898538 29.5765824,23.6276706 C31.5675438,21.8635866 34.1657388,20.764792 37.0393406,20.764792 C42.3342269,20.764792 46.7713358,24.4704353 48.0068412,29.4300428 C49.6458939,28.2284484 51.7640397,27.5127288 54.0581397,27.5127288 C59.4037085,27.5127288 63.64,32.5489512 63.64,37.3291438 C63.64,37.7122186 63.64,37.3543588 63.64,37.3291438 L63.64,38.2368857 C63.64,39.2076654 62.8577683,40 61.8747192,40 L1.76528084,40 C0.781275432,40 0,39.2076654 0,38.2368857" id="Fill-8"></path>
                            <path d="M83.3733333,32.0987654 L81.6617522,32.0987654 C81.1724632,32.0987654 80.7724742,31.9440085 80.4636454,31.6326302 C80.1529562,31.3221841 79.9985418,30.92224 79.9985418,30.4318657 L79.9985418,23.765199 C79.9985418,22.9802272 79.761339,22.4096777 79.2887938,22.048889 C78.8171788,21.6899648 78.2869607,21.5100366 77.6990698,21.5100366 C77.1139695,21.5100366 76.5911931,21.6899648 76.1344614,22.048889 C75.6777297,22.4096777 75.4498289,22.9802272 75.4498289,23.765199 L75.4498289,32.0987654 L72.0266667,32.0987654 L72.0266667,24.4513502 C72.0266667,22.2297494 72.6043253,20.7427779 73.7624332,19.9904356 C74.9186807,19.2390255 76.1995759,18.8316233 77.6023283,18.7654321 C79.0367077,18.7654321 80.3576018,19.1411371 81.5640805,19.8925472 C82.7696289,20.6448895 83.3733333,22.1644905 83.3733333,24.4513502 L83.3733333,32.0987654 Z" id="Fill-10"></path>
                            <path d="M96.6933333,18.7654321 L96.6933333,26.4407537 C96.6933333,28.7696426 96.0896784,30.2947888 94.8842288,31.0161923 C93.6769189,31.7375958 92.3570631,32.0987654 90.9228013,32.0987654 C89.5201639,32.0323327 88.2393737,31.6393502 87.083221,30.917011 C85.9252081,30.1965432 85.3466667,28.7032099 85.3466667,26.4407537 L85.3466667,18.7654321 L88.7695483,18.7654321 L88.7695483,27.128473 C88.7695483,27.9163093 88.9983605,28.4908122 89.4550548,28.8510461 C89.9108189,29.2131514 90.4335525,29.3918648 91.0195349,29.3918648 C91.6064475,29.3918648 92.1366221,29.2131514 92.6091286,28.8510461 C93.0816351,28.4908122 93.3188185,27.9163093 93.3188185,27.128473 L93.3188185,20.4384146 C93.3188185,19.9789994 93.4722901,19.5860169 93.7829538,19.2575958 C94.0926874,18.9301105 94.4926437,18.7654321 94.9809624,18.7654321 L96.6933333,18.7654321 Z" id="Fill-12"></path>
                            <path d="M107.313055,32.0987654 L103.7835,32.0987654 L99.16,18.7654321 L102.838944,18.7654321 L105.474056,28.1388979 L107.810389,19.968454 C108.076074,19.1667571 108.605555,18.7654321 109.401667,18.7654321 L111.986667,18.7654321 L107.313055,32.0987654 Z" id="Fill-14"></path>
                            <path d="M117.391045,24.3561048 L122.320242,24.3561048 C122.255904,23.4580277 122.030722,22.7925392 121.644695,22.3586901 C121.224661,21.8935127 120.629076,21.660924 119.856103,21.660924 C119.146549,21.660924 118.566589,21.8935127 118.116224,22.3586901 C117.66494,22.8267155 117.422295,23.4912546 117.391045,24.3561048 M123.19156,28.2503041 L125.606986,28.2503041 C125.252209,29.6477349 124.574824,30.7128962 123.576668,31.4448386 C122.578513,32.2109573 121.321168,32.5925926 119.80739,32.5925926 C117.971005,32.5925926 116.53719,31.9774192 115.505946,30.7461232 C114.474703,29.5480541 113.96,27.8344925 113.96,25.604489 C113.96,23.4751158 114.459078,21.81092 115.457233,20.6128509 C116.488477,19.3815548 117.923211,18.7654321 119.758677,18.7654321 C121.692489,18.7654321 123.19156,19.3644667 124.254054,20.5625358 C125.284378,21.7938318 125.8,23.5073934 125.8,25.7041699 L125.8,26.0535276 L125.8,26.2538387 C125.8,26.4209228 125.783456,26.5357931 125.752206,26.6022471 L117.391045,26.6022471 C117.422295,27.6351307 117.66494,28.3993507 118.116224,28.8987044 C118.53442,29.4322344 119.163093,29.6971007 120.001323,29.6971007 C120.549113,29.6971007 121.016022,29.581281 121.402049,29.3486923 C121.499475,29.3154654 121.586791,29.2566062 121.667673,29.1730641 C121.747635,29.0914207 121.837708,28.9983853 121.933296,28.8987044 C121.966384,28.7990235 122.085869,28.6670651 122.296345,28.4999809 C122.504984,28.3338461 122.804614,28.2503041 123.19156,28.2503041" id="Fill-16"></path>
                            <path d="M137.511936,19.9866211 C137.510075,19.9875533 137.507285,19.9894177 137.505425,19.9912822 C137.456132,19.9502651 137.404049,19.9176379 137.354756,19.8784853 C137.343596,19.8719599 137.335225,19.8645022 137.324995,19.8579768 C136.56607,19.3862809 135.762503,19.0656022 134.915223,18.8903476 C134.399973,18.8092458 133.879142,18.7654321 133.348081,18.7654321 C131.946489,18.8316187 130.666733,19.2399246 129.509745,19.9912822 C128.351827,20.7435719 127.773333,22.2295072 127.773333,24.4518848 L127.773333,32.0987654 L131.196864,32.0987654 L131.196864,23.7648495 C131.196864,22.9808648 131.423798,22.4103551 131.881385,22.0495916 C132.338042,21.6906925 132.859802,21.5107769 133.446667,21.5107769 C134.033531,21.5107769 134.562732,21.6906925 135.03613,22.0495916 C135.507668,22.4103551 135.745762,22.9808648 135.745762,23.7648495 L135.745762,24.4518848 L135.745762,32.0987654 L139.12,32.0987654 L139.12,24.4518848 L139.12,23.8524768 C139.030715,21.9955237 138.495933,20.7053515 137.511936,19.9866211" id="Fill-18"></path>
                            <path d="M146.077696,19.8925472 C144.794842,19.1411371 143.3924,18.7654321 141.868393,18.7654321 C141.10639,18.7980616 140.369095,18.9043404 139.659473,19.0833364 C139.288849,19.1774957 138.944909,19.3070813 138.626667,19.4674318 C139.425238,20.0212005 139.943124,20.9087221 140.183288,22.1299965 C140.216892,22.1029606 140.248518,22.0740603 140.284098,22.048889 C140.785182,21.6899648 141.349519,21.5100366 141.972168,21.5100366 C142.596793,21.5100366 143.158165,21.6899648 143.661226,22.048889 C144.163298,22.4096777 144.414334,22.9802272 144.414334,23.7642668 L144.414334,30.4318657 C144.414334,30.92224 144.578397,31.3221841 144.907512,31.6326302 C145.236626,31.9440085 145.661608,32.0987654 146.181471,32.0987654 L148,32.0987654 L148,24.4513502 C148,22.1644905 147.358573,20.6448895 146.077696,19.8925472" id="Fill-20"></path>
                        </g>
                    </g>
                </g>
            </g>
        </g>
    </g>
</svg>