<?xml version="1.0" encoding="UTF-8"?>
<svg width="111px" height="30px" viewBox="0 0 111 30" version="1.1" xmlns="http://www.w3.org/2000/svg" xmlns:xlink="http://www.w3.org/1999/xlink">
    <!-- Generator: Sketch 49 (51002) - http://www.bohemiancoding.com/sketch -->
    <title>logo/nuvemG</title>
    <desc>Created with Sketch.</desc>
    <defs>
        <polygon id="path-1" points="0 0.0925175 47.7038939 0.0925175 47.7038939 30 0 30"></polygon>
    </defs>
    <g id="Page-1" stroke="none" stroke-width="1" fill="none" fill-rule="evenodd">
        <g id="OnePage-Nuvem" transform="translate(-326.000000, -6417.000000)">
            <g id="Rodape" transform="translate(275.000000, 6402.000000)">
                <g id="logo/nuvemG" transform="translate(51.000000, 15.000000)">
                    <g id="Logo">
                        <g id="Group-3">
                            <mask id="mask-2" fill="white">
                                <use xlink:href="#path-1"></use>
                            </mask>
                            <g id="Clip-2"></g>
                            <path d="M0,11.5968175 C0,5.2523425 5.08435341,0.0925175 11.339979,0.0925175 C16.4243324,0.0925175 20.7338111,3.4942175 22.170304,8.1574175 C23.6627083,6.8386425 25.6102888,6.0172175 27.7643114,6.0172175 C31.733304,6.0172175 35.0593155,8.7881675 35.9854377,12.4950925 C37.2140549,11.5968175 38.8017953,11.0624925 40.5214293,11.0624925 C44.528413,11.0624925 47.7038939,14.8266925 47.7038939,18.4002175 C47.7038939,18.6873175 47.7038939,18.4190675 47.7038939,18.4002175 L47.7038939,28.6814425 C47.7038939,29.4078925 47.117541,30.0002175 46.3806574,30.0002175 L1.32323648,30.0002175 C0.585636082,30.0002175 0,29.4078925 0,28.6814425" id="Fill-1" fill="#8DC2EA" mask="url(#mask-2)"></path>
                        </g>
                        <path d="M0,14.4202063 C0,8.10168245 5.08713584,2.96296296 11.3461848,2.96296296 C16.4333207,2.96296296 20.7451578,6.35074881 22.1824368,10.9941526 C23.6756579,9.68149392 25.6243041,8.86270681 27.7795055,8.86270681 C31.7506702,8.86270681 35.0785019,11.6223226 36.0051309,15.314807 C37.2344204,14.4202063 38.8230298,13.8873448 40.5436048,13.8873448 C44.5527814,13.8873448 47.73,17.63687 47.73,21.195778 C47.73,21.4809816 47.73,21.2145509 47.73,21.195778 L47.73,25.7243783 C47.73,26.4471349 47.1433262,27.037037 46.4060394,27.037037 L1.32396063,27.037037 C0.585956574,27.037037 0,26.4471349 0,25.7243783" id="Fill-4" fill="#5891CD"></path>
                        <path d="M0,18.0412276 C0,11.768302 5.08713584,6.66666667 11.3461848,6.66666667 C16.4333207,6.66666667 20.7451578,10.0300042 22.1824368,14.6398984 C23.6756579,13.3367126 25.6243041,12.5238344 27.7795055,12.5238344 C31.7506702,12.5238344 35.0785019,15.2635352 36.0051309,18.9293724 C37.2344204,18.0412276 38.8230298,17.5122116 40.5436048,17.5122116 C44.5527814,17.5122116 47.73,21.2346779 47.73,24.7671859 C47.73,25.0510481 47.73,24.7872569 47.73,24.7671859 L47.73,28.6960974 C47.73,29.4143549 47.1433262,30 46.4060394,30 L1.32396063,30 C0.585956574,30 0,29.4143549 0,28.6960974" id="Fill-6" fill="#3C6EB4"></path>
                        <path d="M0,21.1713363 C0,14.806232 5.08713584,9.62962963 11.3461848,9.62962963 C16.4333207,9.62962963 20.7451578,13.0423904 22.1824368,17.720753 C23.6756579,16.3976899 25.6243041,15.573594 27.7795055,15.573594 C31.7506702,15.573594 35.0785019,18.3528265 36.0051309,22.0725321 C37.2344204,21.1713363 38.8230298,20.6345466 40.5436048,20.6345466 C44.5527814,20.6345466 47.73,24.4117134 47.73,27.9968578 C47.73,28.284164 47.73,28.0157691 47.73,27.9968578 L47.73,28.6776643 C47.73,29.405749 47.1433262,30 46.4060394,30 L1.32396063,30 C0.585956574,30 0,29.405749 0,28.6776643" id="Fill-8" fill="#355EA8"></path>
                        <path d="M62.53,24.0740741 L61.2463141,24.0740741 C60.8793474,24.0740741 60.5793556,23.9580064 60.3477341,23.7244726 C60.1147172,23.4916381 59.9989064,23.19168 59.9989064,22.8238993 L59.9989064,17.8238993 C59.9989064,17.2351704 59.8210043,16.8072582 59.4665953,16.5366667 C59.1128841,16.2674736 58.7152205,16.1325274 58.2743023,16.1325274 C57.8354771,16.1325274 57.4433948,16.2674736 57.100846,16.5366667 C56.7582973,16.8072582 56.5873717,17.2351704 56.5873717,17.8238993 L56.5873717,24.0740741 L54.02,24.0740741 L54.02,18.3385126 C54.02,16.6723121 54.453244,15.5570834 55.3218249,14.9928267 C56.1890105,14.4292692 57.1496819,14.1237175 58.2017462,14.0740741 C59.2775307,14.0740741 60.2682013,14.3558528 61.1730603,14.9194104 C62.0772217,15.4836671 62.53,16.6233679 62.53,18.3385126 L62.53,24.0740741 Z" id="Fill-10" fill="#2B2422"></path>
                        <path d="M72.52,14.0740741 L72.52,19.8305653 C72.52,21.577232 72.0672588,22.7210916 71.1631716,23.2621442 C70.2576892,23.8031969 69.2677974,24.0740741 68.192101,24.0740741 C67.140123,24.0242495 66.1795303,23.7295127 65.3124158,23.1877583 C64.4439061,22.6474074 64.01,21.5274074 64.01,19.8305653 L64.01,14.0740741 L66.5771612,14.0740741 L66.5771612,20.3463548 C66.5771612,20.937232 66.7487704,21.3681092 67.0912911,21.6382846 C67.4331142,21.9098635 67.8251644,22.0438986 68.2646512,22.0438986 C68.7048356,22.0438986 69.1024666,21.9098635 69.4568465,21.6382846 C69.8112263,21.3681092 69.9891139,20.937232 69.9891139,20.3463548 L69.9891139,15.3288109 C69.9891139,14.9842495 70.1042176,14.6895127 70.3372153,14.4431969 C70.5695155,14.1975828 70.8694827,14.0740741 71.2357218,14.0740741 L72.52,14.0740741 Z" id="Fill-12" fill="#2B2422"></path>
                        <path d="M80.4847914,24.0740741 L77.8376249,24.0740741 L74.37,14.0740741 L77.1292083,14.0740741 L79.1055418,21.1041735 L80.8577915,14.9763405 C81.0570559,14.3750679 81.4541663,14.0740741 82.0512502,14.0740741 L83.99,14.0740741 L80.4847914,24.0740741 Z" id="Fill-14" fill="#2B2422"></path>
                        <path d="M88.0432837,18.2670786 L91.7401816,18.2670786 C91.6919283,17.5935207 91.5230415,17.0944044 91.2335212,16.7690176 C90.9184956,16.4201345 90.4718072,16.245693 89.8920773,16.245693 C89.3599115,16.245693 88.9249418,16.4201345 88.5871681,16.7690176 C88.2487052,17.1200366 88.066721,17.618441 88.0432837,18.2670786 M92.3936702,21.1877281 L94.2052399,21.1877281 C93.939157,22.2358012 93.4311178,23.0346722 92.6825012,23.5836289 C91.9338845,24.158218 90.9908756,24.4444444 89.8555426,24.4444444 C88.4782534,24.4444444 87.4028924,23.9830644 86.6294597,23.0595924 C85.856027,22.1610405 85.47,20.8758693 85.47,19.2033668 C85.47,17.6063369 85.8443083,16.35819 86.592925,15.4596381 C87.3663577,14.5361661 88.442408,14.0740741 89.8190079,14.0740741 C91.2693666,14.0740741 92.3936702,14.52335 93.1905403,15.4219018 C93.9632837,16.3453739 94.35,17.6305451 94.35,19.2781274 L94.35,19.5401457 L94.35,19.690379 C94.35,19.8156921 94.337592,19.9018449 94.3141546,19.9516853 L88.0432837,19.9516853 C88.066721,20.726348 88.2487052,21.299513 88.5871681,21.6740283 C88.9008151,22.0741758 89.3723195,22.2728255 90.0009921,22.2728255 C90.4118351,22.2728255 90.7620168,22.1859608 91.051537,22.0115192 C91.1246064,21.986599 91.1900932,21.9424546 91.2507545,21.8797981 C91.3107266,21.8185656 91.3782813,21.748789 91.4499721,21.6740283 C91.4747881,21.5992677 91.5644015,21.5002988 91.722259,21.3749857 C91.8787378,21.2503846 92.1034606,21.1877281 92.3936702,21.1877281" id="Fill-16" fill="#2B2422"></path>
                        <path d="M103.133952,14.9899658 C103.132557,14.990665 103.130464,14.9920633 103.129069,14.9934616 C103.092099,14.9626988 103.053037,14.9382284 103.016067,14.908864 C103.007697,14.9039699 103.001419,14.8983767 102.993746,14.8934826 C102.424552,14.5397107 101.821877,14.2992017 101.186417,14.1677607 C100.79998,14.1069343 100.409357,14.0740741 100.011061,14.0740741 C98.9598664,14.123714 98.00005,14.4299435 97.132309,14.9934616 C96.2638705,15.5576789 95.83,16.6721304 95.83,18.3389136 L95.83,24.0740741 L98.3976484,24.0740741 L98.3976484,17.8236371 C98.3976484,17.2356486 98.5678484,16.8077663 98.9110385,16.5371937 C99.2535311,16.2680194 99.6448516,16.1330827 100.085,16.1330827 C100.525148,16.1330827 100.922049,16.2680194 101.277098,16.5371937 C101.630751,16.8077663 101.809321,17.2356486 101.809321,17.8236371 L101.809321,18.3389136 L101.809321,24.0740741 L104.34,24.0740741 L104.34,18.3389136 L104.34,17.8893576 C104.273036,16.4966428 103.87195,15.5290136 103.133952,14.9899658" id="Fill-18" fill="#2B2422"></path>
                        <path d="M109.558272,14.9194104 C108.596131,14.3558528 107.5443,14.0740741 106.401295,14.0740741 C105.829792,14.0985462 105.276821,14.1782553 104.744605,14.3125023 C104.466636,14.3831218 104.208682,14.480311 103.97,14.6005739 C104.568929,15.0159004 104.957343,15.6815416 105.137466,16.5974974 C105.162669,16.5772205 105.186389,16.5555452 105.213074,16.5366667 C105.588887,16.2674736 106.012139,16.1325274 106.479126,16.1325274 C106.947595,16.1325274 107.368624,16.2674736 107.745919,16.5366667 C108.122474,16.8072582 108.310751,17.2351704 108.310751,17.8232001 L108.310751,22.8238993 C108.310751,23.19168 108.433798,23.4916381 108.680634,23.7244726 C108.927469,23.9580064 109.246206,24.0740741 109.636103,24.0740741 L111,24.0740741 L111,18.3385126 C111,16.6233679 110.51893,15.4836671 109.558272,14.9194104" id="Fill-20" fill="#2B2422"></path>
                    </g>
                </g>
            </g>
        </g>
    </g>
</svg>