<?xml version="1.0" standalone="no"?>
<!DOCTYPE svg PUBLIC "-//W3C//DTD SVG 20010904//EN"
 "http://www.w3.org/TR/2001/REC-SVG-20010904/DTD/svg10.dtd">
<svg version="1.0" xmlns="http://www.w3.org/2000/svg"
 width="1536.000000pt" height="1536.000000pt" viewBox="0 0 1536.000000 1536.000000"
 preserveAspectRatio="xMidYMid meet">
<metadata>
Created by potrace 1.11, written by Peter Selinger 2001-2013
</metadata>
<g transform="translate(0.000000,1536.000000) scale(0.100000,-0.100000)"
fill="#000000" stroke="none">
<path d="M3426 12483 c-2 -2 -30 -6 -62 -9 -63 -5 -120 -11 -169 -19 -16 -2
-48 -7 -70 -9 -22 -3 -65 -10 -95 -16 -30 -6 -66 -13 -80 -15 -14 -3 -36 -7
-50 -11 -14 -3 -35 -7 -47 -9 -12 -2 -26 -6 -31 -9 -5 -3 -23 -8 -40 -11 -18
-3 -51 -12 -75 -19 -36 -12 -86 -25 -102 -27 -2 0 -28 -9 -57 -20 -29 -11 -61
-22 -71 -24 -9 -2 -23 -7 -30 -12 -6 -4 -14 -8 -17 -8 -13 -2 -87 -29 -105
-38 -11 -6 -25 -12 -31 -13 -46 -8 -431 -200 -511 -255 -23 -17 -43 -26 -43
-22 0 4 -4 4 -8 -2 -4 -5 -58 -44 -119 -84 -62 -41 -113 -79 -113 -83 0 -4 -7
-8 -15 -8 -8 0 -15 -5 -15 -12 0 -6 -3 -9 -6 -5 -3 3 -16 -5 -29 -19 -12 -13
-27 -24 -33 -24 -6 0 -12 -4 -14 -8 -1 -4 -24 -24 -50 -44 -26 -19 -45 -38
-41 -42 3 -3 1 -6 -6 -6 -16 0 -79 -58 -236 -217 -148 -150 -161 -165 -157
-175 1 -5 -5 -8 -13 -8 -8 0 -15 -4 -15 -8 0 -5 -11 -22 -25 -38 -15 -16 -54
-66 -88 -111 -33 -46 -65 -83 -70 -83 -4 0 -6 -4 -2 -9 3 -5 0 -15 -7 -23 -39
-40 -116 -163 -219 -345 -12 -21 -24 -42 -27 -48 -4 -5 -7 -12 -8 -15 0 -3
-23 -52 -51 -110 -86 -179 -132 -288 -130 -310 0 -3 -6 -16 -13 -30 -8 -14
-15 -28 -16 -32 -1 -5 -3 -10 -4 -13 -1 -3 -4 -9 -5 -15 -1 -5 -4 -12 -5 -15
-4 -8 -7 -17 -15 -52 -4 -18 -12 -33 -18 -33 -6 0 -8 -3 -5 -6 4 -3 2 -20 -3
-37 -6 -18 -12 -39 -14 -47 -2 -8 -11 -40 -20 -70 -8 -30 -17 -68 -20 -85 -3
-16 -8 -38 -11 -47 -3 -9 -7 -26 -9 -37 -3 -12 -7 -30 -9 -40 -3 -11 -8 -41
-12 -68 -9 -54 -11 -62 -14 -65 -1 -2 -3 -16 -5 -33 -1 -16 -5 -43 -8 -60 -3
-16 -8 -57 -12 -90 -3 -33 -9 -80 -13 -105 -3 -25 -7 -1360 -9 -2967 l-4
-2923 26 -75 c13 -41 35 -87 47 -102 44 -54 148 -151 148 -138 0 2 24 -8 53
-23 l52 -27 7325 -3 c5285 -2 7338 0 7370 8 160 39 294 177 329 340 9 40 6
3475 -3 3555 -2 17 -7 62 -11 100 -4 39 -9 73 -11 76 -2 4 -7 24 -10 45 -8 48
-12 69 -14 69 -1 0 -4 14 -6 30 -3 17 -7 37 -11 45 -9 21 -9 20 -17 63 -5 20
-11 37 -15 37 -3 0 -7 10 -8 23 0 12 -7 36 -14 52 -7 17 -13 32 -14 35 -21 88
-212 466 -248 491 -5 3 -7 8 -6 10 4 4 -58 97 -78 117 -7 7 -13 17 -13 22 0 4
-12 22 -27 38 -16 17 -39 45 -53 63 -85 111 -334 355 -396 387 -13 7 -24 16
-24 20 0 4 -20 20 -45 35 -25 16 -45 33 -45 38 0 5 -5 9 -11 9 -6 0 -29 13
-52 28 -43 29 -228 136 -237 137 -3 1 -27 11 -55 24 -71 33 -102 46 -165 69
-61 23 -165 56 -165 53 0 -1 -23 5 -51 14 -28 8 -64 16 -80 17 -16 1 -33 5
-39 9 -16 11 -196 30 -310 32 -44 1 -83 7 -87 12 -5 7 -8 7 -8 0 0 -6 -31 -11
-72 -11 -69 -1 -172 -8 -246 -19 -45 -6 -115 -17 -127 -19 -5 -1 -37 -8 -70
-15 -63 -13 -251 -66 -288 -81 -38 -15 -62 -23 -69 -24 -3 -1 -10 -4 -14 -8
-4 -5 -13 -8 -20 -8 -7 0 -56 -20 -109 -45 -52 -24 -99 -45 -103 -46 -4 -1
-19 -10 -34 -20 -14 -10 -29 -19 -33 -19 -4 0 -20 -9 -36 -21 -16 -11 -29 -18
-29 -14 0 3 -6 1 -12 -5 -7 -6 -42 -29 -78 -53 -36 -23 -72 -48 -80 -56 -12
-12 -15 -10 -22 15 -13 49 -20 78 -21 97 -1 9 -4 17 -8 17 -4 0 -10 15 -14 33
-8 35 -11 44 -15 52 -1 3 -3 8 -5 13 -1 4 -5 15 -8 25 -4 9 -10 25 -14 35 -3
9 -7 19 -8 22 -1 3 -8 19 -15 35 -7 17 -14 32 -15 35 -24 73 -160 331 -177
338 -4 2 -8 8 -8 13 0 11 -39 72 -103 159 -71 98 -89 121 -123 160 -17 19 -39
46 -50 59 -10 13 -68 74 -129 135 -97 98 -155 150 -242 221 -14 11 -37 30 -52
42 -14 13 -31 23 -38 23 -6 0 -13 3 -15 8 -7 16 -198 148 -198 136 0 -3 -7 1
-15 8 -32 29 -45 38 -45 33 0 -4 -12 2 -27 13 -40 27 -196 105 -273 136 -36
15 -74 31 -85 36 -45 21 -155 59 -155 54 0 -4 -6 -2 -12 3 -11 9 -43 19 -73
24 -5 0 -27 8 -48 16 -21 9 -41 13 -44 9 -3 -3 -12 -1 -20 5 -7 6 -13 8 -13 4
0 -4 -7 -2 -15 5 -8 7 -15 10 -15 7 0 -3 -19 0 -42 5 -54 12 -73 16 -123 24
-41 6 -57 8 -180 20 -92 10 -309 10 -410 0 -44 -4 -101 -9 -127 -11 -27 -2
-51 -6 -55 -8 -5 -3 -33 -8 -63 -12 -30 -4 -59 -9 -63 -12 -4 -2 -20 -6 -36
-8 -32 -4 -144 -32 -181 -45 -14 -4 -52 -16 -85 -26 -33 -9 -64 -21 -70 -26
-5 -4 -16 -8 -24 -8 -19 0 -254 -101 -262 -112 -3 -6 -10 -10 -15 -11 -21 -2
-64 -22 -64 -29 0 -4 -9 -8 -20 -8 -11 0 -20 -4 -20 -9 0 -5 -10 -13 -22 -17
-12 -3 -47 -23 -77 -43 -31 -19 -66 -41 -78 -48 -38 -20 -249 -179 -287 -216
-42 -41 -43 -40 -71 58 -10 33 -21 67 -26 75 -4 8 -25 58 -45 110 -47 122 -65
163 -78 172 -6 4 -7 8 -3 8 5 0 1 10 -7 22 -9 12 -16 30 -16 39 0 10 -4 19 -8
21 -5 2 -23 31 -40 65 -17 34 -62 111 -99 172 -37 61 -75 125 -84 141 -9 16
-19 27 -23 23 -3 -3 -6 -1 -6 5 0 10 -92 146 -110 162 -3 3 -17 21 -32 42 -15
20 -33 42 -40 50 -7 7 -38 43 -68 78 -62 74 -150 169 -195 211 -16 15 -65 61
-107 102 -43 41 -78 73 -78 72 0 -3 -56 44 -90 75 -8 8 -34 28 -55 44 -22 17
-42 33 -45 36 -3 3 -30 23 -60 45 -30 22 -58 44 -62 50 -4 5 -8 6 -8 2 0 -5
-6 -2 -14 6 -8 7 -38 29 -68 48 -29 18 -55 36 -58 39 -7 8 -42 28 -70 42 -14
7 -31 18 -38 25 -7 7 -20 13 -27 13 -8 0 -19 8 -24 18 -6 9 -11 14 -11 9 0 -4
-17 3 -37 16 -21 13 -78 43 -128 68 -49 24 -93 49 -97 54 -4 6 -8 6 -8 1 0 -4
-11 -1 -25 8 -13 9 -31 16 -40 16 -8 0 -15 5 -15 11 0 6 -7 9 -15 5 -8 -3 -15
-2 -15 2 0 4 -21 15 -48 26 -26 10 -61 24 -79 32 -17 8 -34 14 -38 14 -4 0
-21 6 -38 14 -34 15 -242 80 -292 92 -16 4 -34 9 -40 13 -5 3 -21 7 -35 9 -14
1 -41 8 -60 14 -19 6 -48 12 -65 13 -16 1 -37 5 -47 9 -9 4 -31 9 -50 11 -18
2 -33 4 -33 5 0 1 -11 3 -25 5 -14 2 -43 6 -65 9 -22 4 -62 9 -90 12 -27 2
-68 7 -90 10 -47 7 -503 13 -509 7z"/>
</g>
</svg>
