<?xml version="1.0" encoding="UTF-8"?>
<svg width="506px" height="462px" viewBox="0 0 506 462" version="1.1" xmlns="http://www.w3.org/2000/svg" xmlns:xlink="http://www.w3.org/1999/xlink">
    <!-- Generator: Sketch 49 (51002) - http://www.bohemiancoding.com/sketch -->
    <title>Pesquisa 2</title>
    <desc>Created with Sketch.</desc>
    <defs></defs>
    <g id="Page-1" stroke="none" stroke-width="1" fill="none" fill-rule="evenodd">
        <g id="OnePage-Nuvem" transform="translate(-430.000000, -1970.000000)">
            <g id="Serviços" transform="translate(0.000000, 1758.000000)">
                <g id="Pesquisa" transform="translate(432.000000, 212.000000)">
                    <g id="Pesquisa-2">
                        <g id="New_Symbol_60">
                            <path d="M481.510204,230.676105 C481.501388,136.471505 424.251566,51.7378093 336.894342,16.6346254 C249.537118,-18.4685585 149.627541,3.11300194 84.5178407,71.1507075 C19.4081407,139.188413 2.18257049,240.009608 41.0052041,325.829999 L460.994796,325.829999 C474.544546,295.941912 481.539925,263.496175 481.510204,230.676105 Z" id="Shape" fill="#D7EEFA" fill-rule="nonzero"></path>
                            <path d="M41.0052041,325.829999 C78.3366875,408.354087 160.478884,461.373813 251,461.373813 C341.521116,461.373813 423.663313,408.354087 460.994796,325.829999 L41.0052041,325.829999 Z" id="Shape" fill="#FFFFFF" fill-rule="nonzero"></path>
                            <path d="M26.252551,325.829999 L475.747449,325.829999" id="Shape" stroke="#4F4A45" stroke-width="4.5" stroke-linecap="round" stroke-linejoin="round"></path>
                            <path d="M0.320153061,325.829999 L14.7270408,325.829999" id="Shape" stroke="#4F4A45" stroke-width="4.5" stroke-linecap="round" stroke-linejoin="round"></path>
                            <path d="M487.272959,325.829999 L501.679847,325.829999" id="Shape" stroke="#4F4A45" stroke-width="4.5" stroke-linecap="round" stroke-linejoin="round"></path>
                        </g>
                        <path d="M277.5,192 C327.046764,192.472798 366.970615,232.578734 367,281.908194 L367,326 L188,326 L188,281.908194 C188.029385,232.578734 227.953236,192.472798 277.5,192 Z" id="Shape" fill="#00B8F0" fill-rule="nonzero"></path>
                        <path d="M277.5,192 C327.046764,192.474644 366.970615,232.737167 367,282.259224 L367,314 C367,264.597424 326.929485,224.548723 277.5,224.548723 C228.070515,224.548723 188,264.597424 188,314 L188,282.259224 C188.029385,232.737167 227.953236,192.474644 277.5,192 Z" id="Shape" fill="#4ACFFF" fill-rule="nonzero"></path>
                        <path d="M277.5,192 C327.046764,192.472798 366.970615,232.578734 367,281.908194 L367,326 L188,326 L188,281.908194 C188.029385,232.578734 227.953236,192.472798 277.5,192 Z" id="Shape" stroke="#45413C" stroke-width="4.5" stroke-linecap="round" stroke-linejoin="round"></path>
                        <path d="M277,163.969921 C242.460801,158.253487 200.207847,157.1102 207.921601,195.410309 C211.490652,213.016927 219.895191,213.18842 277,244 C334.104809,213.18842 342.509348,213.016927 346.078399,195.410309 C353.792153,157.1102 311.539199,158.253487 277,163.969921 Z" id="Shape" stroke="#45413C" stroke-width="4.5" fill="#00B8F0" fill-rule="nonzero" stroke-linecap="round" stroke-linejoin="round"></path>
                        <path d="M276.5,164.010726 C249.431181,159.447223 217.602379,157.772013 209,176.141557 C215.824554,192.373763 222.018267,195.781949 276.5,216 C330.981733,195.781949 337.175446,192.373763 344,176.141557 C335.397621,157.772013 303.568819,159.447223 276.5,164.010726 Z" id="Shape" stroke="#45413C" stroke-width="4.5" fill="#FFFFFF" fill-rule="nonzero" stroke-linecap="round" stroke-linejoin="round"></path>
                        <path d="M250,218 C256.76215,236.855278 260.150424,256.85634 259.994878,277" id="Shape" stroke="#45413C" stroke-width="4.5" stroke-linecap="round" stroke-linejoin="round"></path>
                        <path d="M297,176 L296.999985,200.15 C297.004814,204.745366 295.878625,209.271869 293.719987,213.333333 L276.5,246 L259.280013,213.333333 C257.121375,209.271869 255.995186,204.745366 256.000015,200.15 L256,176 L297,176 Z" id="Shape" stroke="#45413C" stroke-width="4.5" fill="#E09F7E" fill-rule="nonzero" stroke-linecap="round" stroke-linejoin="round"></path>
                        <path d="M297,196.277657 C283.579661,199.907448 269.420339,199.907448 256,196.277657 L256,176 L297,176 L297,196.277657 Z" id="Shape" fill="#D18660" fill-rule="nonzero"></path>
                        <path d="M297,176 L296.999985,200.15 C297.004814,204.745366 295.878625,209.271869 293.719987,213.333333 L276.5,246 L259.280013,213.333333 C257.121375,209.271869 255.995186,204.745366 256.000015,200.15 L256,176 L297,176 Z" id="Shape" stroke="#45413C" stroke-width="4.5" stroke-linecap="round" stroke-linejoin="round"></path>
                        <path d="M304,218 C297.23785,236.855278 293.849576,256.85634 294.005122,277" id="Shape" stroke="#45413C" stroke-width="4.5" stroke-linecap="round" stroke-linejoin="round"></path>
                        <path d="M259,358 L279.416667,358 C287.470819,358 294,364.491871 294,372.5 C294,380.508129 287.470819,387 279.416667,387 L259,387 L259,358 Z" id="Shape" stroke="#45413C" stroke-width="4.5" fill="#E09F7E" fill-rule="nonzero" stroke-linecap="round" stroke-linejoin="round"></path>
                        <path d="M223,322 L223,272" id="Shape" stroke="#45413C" stroke-width="4.5" stroke-linecap="round" stroke-linejoin="round"></path>
                        <path d="M188,294.973522 L188,321.315887 C188,354.759236 211.7312,387 260,387 L260,358.366995 C260,355.204281 257.42116,352.640394 254.24,352.640394 C245.792296,352.894741 237.611513,349.682016 231.619024,343.756771 C225.626536,337.831527 222.350377,329.715873 222.56,321.315887 L222.56,294" id="Shape" stroke="#45413C" stroke-width="4.5" fill="#00B8F0" fill-rule="nonzero" stroke-linecap="round" stroke-linejoin="round"></path>
                        <path d="M334.64985,118.444108 L334.64985,104.645231 C334.64985,72.2563641 308.391382,46 275.999919,46 C243.608457,46 217.349988,72.2563641 217.349988,104.645231 L217.349988,118.444108 C214.605,118.444108 211.972441,119.534463 210.031441,121.475307 C208.090442,123.41615 207,126.048499 207,128.793267 L207,132.242986 C207.031423,137.945603 211.646914,142.560724 217.349988,142.592144 L218.327487,142.592144 C223.267699,170.589567 247.596521,191 276.028669,191 C304.460817,191 328.789639,170.589567 333.729851,142.592144 L334.64985,142.592144 C340.365991,142.592144 344.999838,137.958668 344.999838,132.242986 L344.999838,128.793267 C345.015243,126.043806 343.929748,123.402498 341.9854,121.458305 C340.041051,119.514112 337.399531,118.428705 334.64985,118.444108 Z" id="Shape" stroke="#45413C" stroke-width="4.5" fill="#E09F7E" fill-rule="nonzero" stroke-linecap="round" stroke-linejoin="round"></path>
                        <circle id="Oval" fill="#D18660" fill-rule="nonzero" cx="242" cy="142" r="7"></circle>
                        <circle id="Oval" fill="#D18660" fill-rule="nonzero" cx="311" cy="142" r="7"></circle>
                        <path d="M259,156 C268.8,165.333333 284.2,165.333333 294,156" id="Shape" stroke="#45413C" stroke-width="4.5" stroke-linecap="round" stroke-linejoin="round"></path>
                        <path d="M307,125 C305.473291,121.452612 302.17979,119.127788 298.5,119 C294.82861,119.155349 291.547505,121.471423 290,125" id="Shape" stroke="#45413C" stroke-width="4.5" stroke-linecap="round" stroke-linejoin="round"></path>
                        <path d="M263,124 C261.550339,120.361886 258.204334,118 254.5,118 C250.795666,118 247.449661,120.361886 246,124" id="Shape" stroke="#45413C" stroke-width="4.5" stroke-linecap="round" stroke-linejoin="round"></path>
                        <path d="M227.828996,128 C229.920049,120.079067 230.312627,111.811732 228.981413,103.731198 C234.743494,105.729805 245,97.1643454 245,97.1643454 L245,83.45961 C255.070572,86.9246017 265.511656,89.2239939 276.115242,90.3119777 C286.720242,89.23264 297.162325,86.9330278 307.230483,83.45961 L307.230483,97.1643454 C307.230483,97.1643454 317.256506,105.729805 323.306691,103.731198 C321.978708,111.814853 322.391078,120.085461 324.516729,128 C324.577479,124.765125 326.180079,121.749757 328.837499,119.870264 C331.49492,117.99077 334.893346,117.4691 338,118.463788 C338,118.463788 338,118.463788 338,118.463788 C336.954509,118.141437 335.867997,117.968388 334.773234,117.949861 L334.773234,104.245125 C334.773234,72.0772309 308.459561,46 276,46 C243.540439,46 217.226766,72.0772309 217.226766,104.245125 L217.226766,117.949861 C216.13274,117.976472 215.047347,118.149342 214,118.463788 C217.149573,117.303972 220.672654,117.746502 223.430648,119.648362 C226.188642,121.550222 227.831767,124.670209 227.828996,128 Z" id="Shape" fill="#614B44" fill-rule="nonzero"></path>
                        <path d="M276.499986,59.9047619 C292.019813,59.8893689 306.908369,66.1105133 317.882549,77.1963587 C328.856729,88.2822042 335.01521,103.322255 335,119 L334.999972,105.095238 C334.999972,72.4578393 308.808636,46 276.499986,46 C244.191336,46 218,72.4578393 218,105.095238 L218,119 C218,86.3626012 244.191336,59.9047619 276.499986,59.9047619 Z" id="Shape" fill="#724F3D" fill-rule="nonzero"></path>
                        <path d="M227.828996,128 C229.920049,120.079067 230.312627,111.811732 228.981413,103.731198 C234.743494,105.729805 245,97.1643454 245,97.1643454 L245,83.45961 C255.070572,86.9246017 265.511656,89.2239939 276.115242,90.3119777 C286.720242,89.23264 297.162325,86.9330278 307.230483,83.45961 L307.230483,97.1643454 C307.230483,97.1643454 317.256506,105.729805 323.306691,103.731198 C321.978708,111.814853 322.391078,120.085461 324.516729,128 C324.577479,124.765125 326.180079,121.749757 328.837499,119.870264 C331.49492,117.99077 334.893346,117.4691 338,118.463788 C338,118.463788 338,118.463788 338,118.463788 C336.954509,118.141437 335.867997,117.968388 334.773234,117.949861 L334.773234,104.245125 C334.773234,72.0772309 308.459561,46 276,46 C243.540439,46 217.226766,72.0772309 217.226766,104.245125 L217.226766,117.949861 C216.13274,117.976472 215.047347,118.149342 214,118.463788 C217.149573,117.303972 220.672654,117.746502 223.430648,119.648362 C226.188642,121.550222 227.831767,124.670209 227.828996,128 Z" id="Shape" stroke="#45413C" stroke-width="4.5" stroke-linecap="round" stroke-linejoin="round"></path>
                        <path d="M257.841521,141 L238.959095,141 C231.203082,140.840457 224.998398,134.432004 225,126.582473 L225,114.860906 C225,111.624084 227.593237,109.000122 230.792156,109.000122 L266.00846,109.000122 C267.990068,108.988317 269.882437,109.832923 271.209918,111.321648 C272.5374,112.810372 273.173759,114.801647 272.959047,116.794964 L271.684772,128.164884 C270.926928,135.362121 264.993466,140.863479 257.841521,141 Z" id="Shape" stroke="#45413C" stroke-width="4.5" stroke-linecap="round" stroke-linejoin="round"></path>
                        <path d="M295.140167,141 L314.115487,141 C321.852734,140.840072 328.033064,134.422422 327.999867,126.582473 L327.999867,114.860906 C327.999867,111.624084 325.409763,109.000122 322.214709,109.000122 L286.983094,109.000122 C285.00388,108.988317 283.113797,109.832923 281.787919,111.321648 C280.462041,112.810372 279.826451,114.801647 280.040904,116.794964 L281.255787,128.164884 C282.064255,135.358833 287.99489,140.84128 295.140167,141 Z" id="Shape" stroke="#45413C" stroke-width="4.5" stroke-linecap="round" stroke-linejoin="round"></path>
                        <path d="M271,120 L280,120" id="Shape" stroke="#45413C" stroke-width="4.5" stroke-linecap="round" stroke-linejoin="round"></path>
                        <ellipse id="Oval" fill="#45413C" fill-rule="nonzero" opacity="0.15" cx="88.5" cy="375.5" rx="86.5" ry="8.5"></ellipse>
                        <ellipse id="Oval" fill="#45413C" fill-rule="nonzero" opacity="0.15" cx="339.5" cy="392.5" rx="112.5" ry="8.5"></ellipse>
                        <path d="M334,275.6 L334,272" id="Shape" stroke="#45413C" stroke-width="4.5" stroke-linecap="round" stroke-linejoin="round"></path>
                        <path d="M334,326 L334,272" id="Shape" stroke="#45413C" stroke-width="4.5" stroke-linecap="round" stroke-linejoin="round"></path>
                        <polyline id="Shape" stroke="#45413C" stroke-width="4.5" stroke-linecap="round" stroke-linejoin="round" points="108 254 113 249.734597 113 230"></polyline>
                        <path d="M99.1149804,277 L88,268.624357 L98.4781847,254.761224 C99.9776508,252.780095 102.422466,251.747652 104.891693,252.052804 C107.36092,252.357956 109.479423,253.954345 110.449183,256.240626 C111.418944,258.526906 111.092631,261.155739 109.593165,263.136867 L99.1149804,277 Z" id="Shape" stroke="#45413C" stroke-width="4.5" fill="#656769" fill-rule="nonzero" stroke-linecap="round" stroke-linejoin="round"></path>
                        <path d="M88,264 L4,229" id="Shape" stroke="#45413C" stroke-width="4.5" stroke-linecap="round" stroke-linejoin="round"></path>
                        <path d="M85,287 L1,252" id="Shape" stroke="#45413C" stroke-width="4.5" stroke-linecap="round" stroke-linejoin="round"></path>
                        <path d="M168.404531,139.818166 C190.837168,135.37867 212.763576,149.436169 217.907677,171.555713 C223.051778,193.675257 209.550887,215.847335 187.42678,221.613508 C165.302674,227.379681 142.566514,214.65201 136.095463,192.878307 L126.494726,194.761086 L125,187.287023 L134.600737,185.404244 C132.334752,163.830627 146.975791,144.086465 168.404531,139.818166 Z" id="Shape" stroke="#45413C" stroke-width="4.5" fill="#E8F4FA" fill-rule="nonzero" stroke-linecap="round" stroke-linejoin="round"></path>
                        <circle id="Oval" fill="#00B8F0" fill-rule="nonzero" transform="translate(177.500000, 181.500000) rotate(-11.230000) translate(-177.500000, -181.500000) " cx="177.5" cy="181.5" r="33.5"></circle>
                        <path d="M121.671356,185.058892 C122.400379,184.906664 123.160865,185.052426 123.778901,185.462841 C124.416195,185.861288 124.844169,186.515177 124.949759,187.251761 L126.940218,196.888847 C127.094956,197.616524 126.946428,198.374971 126.528039,198.993593 C126.109651,199.612215 125.456533,200.039071 124.715588,200.178151 L94.7416137,205.948861 C90.6834125,206.408614 86.9464803,203.721619 86.1512451,199.772062 C85.35601,195.822505 87.7686582,191.932408 91.697382,190.829601 L121.671356,185.058892 Z" id="Shape" fill="#FF6242" fill-rule="nonzero"></path>
                        <path d="M126,192.026199 L125.017537,187.277097 C124.726089,185.757994 123.280299,184.76268 121.781189,185.049124 L92.1917235,190.912212 C88.072667,191.767973 85.379169,195.80181 86.1235714,200 L126,192.026199 Z" id="Shape" fill="#FF866E" fill-rule="nonzero"></path>
                        <path d="M121.671356,185.058892 C122.400379,184.906664 123.160865,185.052426 123.778901,185.462841 C124.416195,185.861288 124.844169,186.515177 124.949759,187.251761 L126.940218,196.888847 C127.094956,197.616524 126.946428,198.374971 126.528039,198.993593 C126.109651,199.612215 125.456533,200.039071 124.715588,200.178151 L94.7416137,205.948861 C90.6834125,206.408614 86.9464803,203.721619 86.1512451,199.772062 C85.35601,195.822505 87.7686582,191.932408 91.697382,190.829601 L121.671356,185.058892 Z" id="Shape" stroke="#45413C" stroke-width="4.5" stroke-linecap="round" stroke-linejoin="round"></path>
                        <path d="M190.591902,160.501309 C204.483153,169.8455 209.292268,188.022495 201.835845,203 C202.700764,201.963447 203.565683,200.869307 204.37294,199.717581 C214.595322,184.467545 210.503514,163.828842 195.233632,153.619746 C179.96375,143.410651 159.298187,147.49714 149.075805,162.747175 C148.319145,163.918386 147.626206,165.129453 147,166.375112 C157.977263,153.735201 176.652994,151.218734 190.591902,160.501309 Z" id="Shape" fill="#80DDFF" fill-rule="nonzero"></path>
                        <circle id="Oval" stroke="#45413C" stroke-width="4.5" stroke-linecap="round" stroke-linejoin="round" transform="translate(177.500000, 181.500000) rotate(-11.230000) translate(-177.500000, -181.500000) " cx="177.5" cy="181.5" r="33.5"></circle>
                        <path d="M120.673743,195 L138.869185,219.74281 C140.181247,221.52339 140.36627,223.88649 139.347096,225.846647 C138.327922,227.806803 136.279551,229.027442 134.056197,228.999531 L113.219482,228.650221 L106,197.910919" id="Shape" stroke="#45413C" stroke-width="4.5" stroke-linecap="round" stroke-linejoin="round"></path>
                        <path d="M93.2969136,201 L84.2472402,231.432669 C83.6003649,233.613884 84.2468991,235.981225 85.9049927,237.502674 C87.5630862,239.024123 89.9322051,239.423914 91.9795561,238.527761 L113,229.38037" id="Shape" stroke="#45413C" stroke-width="4.5" stroke-linecap="round" stroke-linejoin="round"></path>
                        <path d="M93,200.76 L120,195" id="Shape" stroke="#45413C" stroke-width="4.5" stroke-linecap="round" stroke-linejoin="round"></path>
                        <circle id="Oval" stroke="#45413C" stroke-width="4.5" fill="#656769" fill-rule="nonzero" stroke-linecap="round" stroke-linejoin="round" cx="88.5" cy="276.5" r="17.5"></circle>
                        <path d="M94.9997612,276.942285 C95.02315,279.783872 93.3263129,282.357621 90.7054375,283.455881 C88.084562,284.554141 85.0598004,283.958946 83.050427,281.949573 C81.0410535,279.9402 80.4458586,276.915438 81.5441188,274.294563 C82.6423789,271.673687 85.2161278,269.97685 88.0577148,270.000239 C91.8917012,270.000239 94.9997612,273.108299 94.9997612,276.942285 Z" id="Shape" stroke="#45413C" stroke-width="4.5" fill="#ADC4D9" fill-rule="nonzero" stroke-linecap="round" stroke-linejoin="round"></path>
                        <rect id="Rectangle-path" stroke="#45413C" stroke-width="4.5" fill="#FFFFFF" fill-rule="nonzero" stroke-linecap="round" stroke-linejoin="round" x="18" y="355" width="138" height="15" rx="5.625"></rect>
                        <rect id="Rectangle-path" stroke="#45413C" stroke-width="4.5" fill="#FFFFFF" fill-rule="nonzero" stroke-linecap="round" stroke-linejoin="round" x="24" y="340" width="138" height="15" rx="5.625"></rect>
                        <rect id="Rectangle-path" stroke="#45413C" stroke-width="4.5" fill="#FFFFFF" fill-rule="nonzero" stroke-linecap="round" stroke-linejoin="round" x="18" y="326" width="138" height="15" rx="5.625"></rect>
                        <rect id="Rectangle-path" stroke="#45413C" stroke-width="4.5" fill="#FFFFFF" fill-rule="nonzero" stroke-linecap="round" stroke-linejoin="round" x="24" y="311" width="138" height="15" rx="5.625"></rect>
                        <path d="M308.024941,371 L294,371 L327.461995,269.755676 C328.394375,266.923427 331.07226,265.003807 334.0962,265 L343,265" id="Shape" stroke="#45413C" stroke-width="4.5" fill="#E8F4FA" fill-rule="nonzero" stroke-linejoin="round"></path>
                        <path d="M442.814518,371 L308,371 L342.479416,265.002201 L467.927026,265.002201 C470.201233,264.944654 472.355245,266.018482 473.673595,267.867007 C474.985756,269.628073 475.350631,271.917859 474.650512,273.99769 L442.814518,371 Z" id="Shape" stroke="#45413C" stroke-width="4.5" fill="#ADC4D9" fill-rule="nonzero" stroke-linejoin="round"></path>
                        <polygon id="Shape" fill="#C0DCEB" fill-rule="nonzero" points="434 265 342.609689 265 308 371 326.600548 371"></polygon>
                        <path d="M443,372 L303,372 L303,388.999512 L429.436782,388.999512 C436.735632,389.056177 443,384.182984 443,372 Z" id="Shape" stroke="#45413C" stroke-width="4.5" fill="#C0DCEB" fill-rule="nonzero" stroke-linejoin="round"></path>
                        <path d="M304,372 L234,372 C234,383.843333 239.833333,389 247.825,389 L304,389 L304,372 Z" id="Shape" stroke="#45413C" stroke-width="4.5" fill="#E8F4FA" fill-rule="nonzero" stroke-linejoin="round"></path>
                        <path d="M404.1579,312.878418 C404.223889,310.237271 405.610074,307.806208 407.847119,306.408343 C406.414167,304.36334 404.112893,303.103448 401.621562,303 C398.969936,303 396.433598,304.617519 395.107785,304.617519 C393.781972,304.617519 391.649143,303.057769 389.343381,303.115537 C386.413365,303.206029 383.744795,304.828165 382.310807,307.390408 C379.984227,313.148297 380.790791,319.702132 384.443637,324.720966 C385.884738,326.800633 387.614059,329.111374 389.862177,328.995837 C392.110295,328.8803 392.802023,327.609392 395.626582,327.609392 C398.45114,327.609392 398.969936,328.995837 401.390986,328.995837 C403.812036,328.995837 405.195493,326.858402 406.636594,324.778735 C407.625383,323.267538 408.419486,321.637082 409,319.926178 C406.077722,318.818246 404.14804,316.009559 404.1579,312.878418 Z" id="Shape" stroke="#45413C" stroke-width="4.5" fill="#EDF2F4" fill-rule="nonzero" stroke-linejoin="round"></path>
                        <path d="M399,294.24 L402.24,291" id="Shape" stroke="#45413C" stroke-width="4.5" stroke-linecap="round" stroke-linejoin="round"></path>
                        <path d="M442.814518,371 L308,371 L342.479416,265.002201 L467.927026,265.002201 C470.201233,264.944654 472.355245,266.018482 473.673595,267.867007 C474.985756,269.628073 475.350631,271.917859 474.650512,273.99769 L442.814518,371 Z" id="Shape" stroke="#45413C" stroke-width="4.5" stroke-linejoin="round"></path>
                        <path d="M130.196435,357.012382 C131.267855,355.353625 131.267855,353.211923 130.196435,351.553166 C127.2648,348.649327 90.8205598,339.937811 89.383484,352.947008 L87.0266798,372.286573 C86.7506356,375.186386 88.6436671,377.844134 91.4528731,378.500788 L113.468873,382.914622 C116.411457,383.393417 119.30725,381.823527 120.539286,379.081555 L130.196435,357.012382 Z" id="Shape" fill="#E8F4FA" fill-rule="nonzero"></path>
                        <path d="M89,356.569478 C95.854418,348.143635 126.611422,355.606525 129.306321,358.314831 C129.720383,358.784405 129.985957,359.372029 130.067923,360 L131.181034,357.412062 C132.272989,355.693103 132.272989,353.47367 131.181034,351.754711 C128.19321,348.745481 91.0504669,339.717792 89.5858477,353.199141 L89,356.569478 Z" id="Shape" fill="#FFFFFF" fill-rule="nonzero"></path>
                        <path d="M130.196435,357.012382 C131.267855,355.353625 131.267855,353.211923 130.196435,351.553166 C127.2648,348.649327 90.8205598,339.937811 89.383484,352.947008 L87.0266798,372.286573 C86.7506356,375.186386 88.6436671,377.844134 91.4528731,378.500788 L113.468873,382.914622 C116.411457,383.393417 119.30725,381.823527 120.539286,379.081555 L130.196435,357.012382 Z" id="Shape" stroke="#45413C" stroke-width="3.375" stroke-linecap="round" stroke-linejoin="round"></path>
                        <path d="M112.803634,395 C113.211556,393.502261 112.978223,391.90771 112.156861,390.58008 C111.335499,389.25245 109.996161,388.304972 108.444361,387.953775 L93.5403629,385.089456 C90.1399861,384.536402 86.8680626,386.599597 86,389.844226 L112.803634,395 Z" id="Shape" stroke="#45413C" stroke-width="3.375" fill="#00F5BC" fill-rule="nonzero" stroke-linecap="round" stroke-linejoin="round"></path>
                        <path d="M116.45602,370.792135 C115.34042,374.725362 116.303141,378.967599 118.9995,382 C119.971389,381.229308 120.728694,380.212472 121.196141,379.050562 L129,361 C123.166055,361.101634 118.078765,365.072896 116.45602,370.792135 Z" id="Shape" stroke="#45413C" stroke-width="1.35" fill="#00F5BC" fill-rule="nonzero" stroke-linecap="round" stroke-linejoin="round"></path>
                        <path d="M109.718151,380.044829 C108.583325,384.08842 104.643445,386.604139 100.588474,385.874375 C98.6791336,385.495663 97.0147074,384.311751 96.0044494,382.613742 C94.9941913,380.915733 94.7318202,378.861147 95.2818488,376.955171 C96.4166748,372.91158 100.356555,370.395861 104.411526,371.125625 C106.320866,371.504337 107.985293,372.688249 108.995551,374.386258 C110.005809,376.084267 110.26818,378.138853 109.718151,380.044829 Z" id="Shape" stroke="#45413C" stroke-width="3.375" fill="#8CA4B8" fill-rule="nonzero" stroke-linecap="round" stroke-linejoin="round"></path>
                        <polygon id="Shape" stroke="#45413C" stroke-width="3.375" fill="#C0DCEB" fill-rule="nonzero" stroke-linecap="round" stroke-linejoin="round" points="132.796117 340 124 338.212766 127.145631 326 136 327.787234"></polygon>
                        <path d="M136.496312,327 L128,325.246213 L129.117936,320.744825 C129.725822,318.145749 132.211383,316.534046 134.707614,317.12033 C135.830973,317.351596 136.809754,318.065805 137.405049,319.08863 C138.000344,320.111454 138.157383,321.348787 137.837834,322.498612 L136.496312,327 Z" id="Shape" stroke="#45413C" stroke-width="3.375" fill="#E8F4FA" fill-rule="nonzero" stroke-linecap="round" stroke-linejoin="round"></path>
                        <polygon id="Shape" stroke="#45413C" stroke-width="3.375" fill="#C0DCEB" fill-rule="nonzero" stroke-linecap="round" stroke-linejoin="round" points="119.973684 333 111 332.125561 113.026316 320 122 320.874439"></polygon>
                        <path d="M121.384141,322 L112,321.08666 L112.767257,316.337291 C113.215164,313.686767 115.537119,311.817744 118.138054,312.014148 C119.340238,312.127721 120.438859,312.763455 121.159579,313.7626 C121.880299,314.761746 122.155084,316.029988 121.915318,317.250632 L121.384141,322 Z" id="Shape" stroke="#45413C" stroke-width="3.375" fill="#E8F4FA" fill-rule="nonzero" stroke-linecap="round" stroke-linejoin="round"></path>
                        <polygon id="Shape" stroke="#45413C" stroke-width="3.375" fill="#C0DCEB" fill-rule="nonzero" stroke-linecap="round" stroke-linejoin="round" points="95 341.16763 85.8032787 344 84 336.83237 93.136612 334"></polygon>
                        <path d="M93,333.277922 L84.2823325,336 L83.135271,331.889107 C82.5380886,329.491523 83.9702594,327.057819 86.4043963,326.333846 C87.5395371,325.857794 88.8339106,325.89231 89.9402911,326.428135 C91.0466717,326.963959 91.8518035,327.946241 92.1397039,329.111476 L93,333.277922 Z" id="Shape" stroke="#45413C" stroke-width="3.375" fill="#E8F4FA" fill-rule="nonzero" stroke-linecap="round" stroke-linejoin="round"></path>
                        <polygon id="Shape" stroke="#45413C" stroke-width="3.375" fill="#C0DCEB" fill-rule="nonzero" stroke-linecap="round" stroke-linejoin="round" points="105.943038 334.408602 97 335 97.056962 324.650538 106 324"></polygon>
                        <path d="M105.943014,323.445291 L97,324 L97,319.6178 C97.0787791,317.191742 99.0156447,315.210072 101.499988,315.013716 C102.660733,314.920487 103.808424,315.305593 104.663824,316.075337 C105.519224,316.845081 106.003917,317.928897 105.999976,319.063091 L105.943014,323.445291 Z" id="Shape" stroke="#45413C" stroke-width="3.375" fill="#E8F4FA" fill-rule="nonzero" stroke-linecap="round" stroke-linejoin="round"></path>
                        <path d="M130.80402,351 L134,339.695652 L124.834171,338 L122,348.230435 C125.081248,348.678018 128.05856,349.614619 130.80402,351 Z" id="Shape" stroke="#45413C" stroke-width="3.375" fill="#ADC4D9" fill-rule="nonzero" stroke-linecap="round" stroke-linejoin="round"></path>
                        <path d="M96.9008053,353.01628 C96.0747177,352.900583 95.2905318,353.412204 95.0685524,354.211685 C94.946262,354.582043 94.9889272,354.986697 95.1858089,355.323794 C95.3826907,355.660891 95.715037,355.898324 96.0991947,355.97633 C96.9313176,356.119847 97.7327387,355.596982 97.9314476,354.780925 C98.053738,354.410567 98.0110728,354.005913 97.8141911,353.668816 C97.6173093,353.331719 97.284963,353.094286 96.9008053,353.01628 Z" id="Shape" fill="#45413C" fill-rule="nonzero"></path>
                        <path d="M121.900805,353.01628 C121.074718,352.900583 120.290532,353.412204 120.068552,354.211685 C119.946262,354.582043 119.988927,354.986697 120.185809,355.323794 C120.382691,355.660891 120.715037,355.898324 121.099195,355.97633 C121.931318,356.119847 122.732739,355.596982 122.931448,354.780925 C123.053738,354.410567 123.011073,354.005913 122.814191,353.668816 C122.617309,353.331719 122.284963,353.094286 121.900805,353.01628 Z" id="Shape" fill="#45413C" fill-rule="nonzero"></path>
                        <path d="M93.8598805,364.02661 C93.0545692,363.87615 92.2697055,364.377482 92.0491496,365.183215 C91.9474206,365.567288 92.0050708,365.977231 92.20852,366.316478 C92.4119692,366.655724 92.7432306,366.894281 93.1242711,366.975953 C93.9466197,367.121755 94.7386272,366.590566 94.935002,365.761517 C95.0563704,365.383887 95.0061271,364.970573 94.7980327,364.634774 C94.5899384,364.298975 94.2458036,364.075887 93.8598805,364.02661 Z" id="Shape" fill="#45413C" fill-rule="nonzero"></path>
                        <path d="M125.493084,365.758257 C121.45314,367.125463 119.160256,371.551644 120.285964,375.810074 C120.854544,377.756136 122.17683,379.36834 123.935505,380.259795 C125.694181,381.151251 127.730495,381.241488 129.555781,380.508852 C133.275152,379.200332 137.108966,372.95512 141,365.6393 L131.901846,361 C130.114554,363.040734 127.929913,364.662744 125.493084,365.758257 Z" id="Shape" stroke="#45413C" stroke-width="3.375" fill="#ADC4D9" fill-rule="nonzero" stroke-linecap="round" stroke-linejoin="round"></path>
                        <path d="M149.618182,351.542312 C150.127273,350.612085 150.127273,349.485173 149.618182,348.554946 C149.1794,347.618114 148.245648,347.01557 147.21442,347.003814 C143.923342,346.91107 140.813816,348.515077 138.972951,351.255065 L138,353.035995 L146.012539,357 C147.157188,355.27652 148.473533,353.43814 149.618182,351.542312 Z" id="Shape" stroke="#45413C" stroke-width="3.375" fill="#E8F4FA" fill-rule="nonzero" stroke-linecap="round" stroke-linejoin="round"></path>
                        <path d="M138.623932,354 C137.034649,356.417605 135.147267,358.654928 133,360.666667 L142.512821,365 L147,357.944444 L138.623932,354 Z" id="Shape" stroke="#45413C" stroke-width="3.375" fill="#00F5BC" fill-rule="nonzero" stroke-linecap="round" stroke-linejoin="round"></path>
                        <path d="M117.138462,347 L119,332.882353 L110.25641,332 L108,345.705882 C111.068072,345.947865 114.119619,346.380002 117.138462,347 Z" id="Shape" stroke="#45413C" stroke-width="3.375" fill="#ADC4D9" fill-rule="nonzero" stroke-linecap="round" stroke-linejoin="round"></path>
                        <path d="M106,345.428571 L105.668712,334 L97,334.571429 L97.4417178,346 C100.265435,345.483885 103.13561,345.292246 106,345.428571 Z" id="Shape" stroke="#45413C" stroke-width="3.375" fill="#ADC4D9" fill-rule="nonzero" stroke-linecap="round" stroke-linejoin="round"></path>
                        <path d="M89.4444444,352.604096 C89.7777778,349.587031 92,347.788396 95,346.802048 L93.5,341 L85,343.843003 L88.7222222,358 L89.4444444,352.604096 Z" id="Shape" stroke="#45413C" stroke-width="3.375" fill="#ADC4D9" fill-rule="nonzero" stroke-linecap="round" stroke-linejoin="round"></path>
                        <path d="M103.960383,379.225465 C103.795418,379.759335 103.267046,380.083554 102.728809,379.981182 C102.479331,379.935003 102.261113,379.781821 102.12929,379.560339 C101.997467,379.338858 101.964649,379.070262 102.039128,378.822416 C102.183889,378.268312 102.718077,377.918672 103.270702,378.016319 C103.523796,378.074926 103.74174,378.238361 103.872495,378.467601 C104.00325,378.69684 104.035079,378.971306 103.960383,379.225465 Z" id="Shape" stroke="#45413C" stroke-width="1.35" stroke-linecap="round" stroke-linejoin="round"></path>
                        <ellipse id="Oval" fill="#45413C" fill-rule="nonzero" opacity="0.15" cx="164.5" cy="392" rx="26.5" ry="5"></ellipse>
                        <path d="M160.084502,376.000443 L148.972636,376.000443 C147.924358,375.984807 146.913691,376.396222 146.166975,377.142552 C145.420259,377.888882 144.999887,378.907767 145,379.971026 C145,382.196167 146.77861,384 148.972636,384 L160.084502,384 C161.132893,384.000115 162.13753,383.573781 162.873424,382.816475 C163.609318,382.05917 164.014981,381.034171 163.999563,379.971026 C164.015251,378.913165 163.607812,377.893961 162.870168,377.145855 C162.132523,376.39775 161.127571,375.984533 160.084502,376.000443 Z" id="Shape" fill="#141517" fill-rule="nonzero"></path>
                        <path d="M148.901304,379.961478 L160.065916,379.961478 C161.461431,380.003425 162.733754,380.776459 163.421084,382 C163.794318,381.386047 163.99431,380.681288 163.999561,379.961478 C164.015323,378.906287 163.605951,377.889657 162.864804,377.14344 C162.123658,376.397224 161.113936,375.98505 160.065916,376.00092 L148.901304,376.00092 C147.510503,375.970341 146.213261,376.703829 145.515304,377.915435 C144.817348,379.127041 144.82916,380.624974 145.546136,381.82527 C146.275848,380.668769 147.540483,379.966266 148.901304,379.961478 Z" id="Shape" fill="#555A63" fill-rule="nonzero"></path>
                        <path d="M160.084502,376.000443 L148.972636,376.000443 C147.924358,375.984807 146.913691,376.396222 146.166975,377.142552 C145.420259,377.888882 144.999887,378.907767 145,379.971026 C145,382.196167 146.77861,384 148.972636,384 L160.084502,384 C161.132893,384.000115 162.13753,383.573781 162.873424,382.816475 C163.609318,382.05917 164.014981,381.034171 163.999563,379.971026 C164.015251,378.913165 163.607812,377.893961 162.870168,377.145855 C162.132523,376.39775 161.127571,375.984533 160.084502,376.000443 Z" id="Shape" stroke="#45413C" stroke-width="2.25"></path>
                        <path d="M160.039275,384 L148.960725,384 C146.773277,384 145,385.790861 145,388 C145,390.209139 146.773277,392 148.960725,392 L160.039275,392 C162.226723,392 164,390.209139 164,388 C164,385.790861 162.226723,384 160.039275,384 Z" id="Shape" fill="#141517" fill-rule="nonzero"></path>
                        <path d="M148.972639,388.019417 L160.084512,388.019417 C161.464894,388.037763 162.7337,388.790303 163.423831,390 C163.79336,389.406507 163.992685,388.720824 163.999576,388.019417 C164.014994,386.958795 163.609331,385.936227 162.873436,385.180717 C162.137542,384.425208 161.132904,383.999885 160.084512,384 L148.972639,384 C146.778611,384 145,385.799555 145,388.019417 C145.024072,388.726512 145.24347,389.412638 145.633319,390 C146.323451,388.790303 147.592256,388.037763 148.972639,388.019417 Z" id="Shape" fill="#6DD627" fill-rule="nonzero"></path>
                        <path d="M160.039275,384 L148.960725,384 C146.773277,384 145,385.790861 145,388 C145,390.209139 146.773277,392 148.960725,392 L160.039275,392 C162.226723,392 164,390.209139 164,388 C164,385.790861 162.226723,384 160.039275,384 Z" id="Shape" stroke="#45413C" stroke-width="2.25"></path>
                        <path d="M179.084502,376.000443 L167.972636,376.000443 C166.924358,375.984807 165.913691,376.396222 165.166975,377.142552 C164.420259,377.888882 163.999887,378.907767 164,379.971026 C164,381.039576 164.418544,382.064362 165.163558,382.819941 C165.908572,383.57552 166.919027,384 167.972636,384 L179.084502,384 C180.132893,384.000115 181.13753,383.573781 181.873424,382.816475 C182.609318,382.05917 183.014981,381.034171 182.999563,379.971026 C183.015251,378.913165 182.607812,377.893961 181.870168,377.145855 C181.132523,376.39775 180.127571,375.984533 179.084502,376.000443 Z" id="Shape" fill="#141517" fill-rule="nonzero"></path>
                        <path d="M167.901304,379.961478 L179.065916,379.961478 C180.461431,380.003425 181.733754,380.776459 182.421084,382 C182.794318,381.386047 182.99431,380.681288 182.999561,379.961478 C183.015323,378.906287 182.605951,377.889657 181.864804,377.14344 C181.123658,376.397224 180.113936,375.98505 179.065916,376.00092 L167.901304,376.00092 C166.510503,375.970341 165.213261,376.703829 164.515304,377.915435 C163.817348,379.127041 163.82916,380.624974 164.546136,381.82527 C165.275848,380.668769 166.540483,379.966266 167.901304,379.961478 Z" id="Shape" fill="#555A63" fill-rule="nonzero"></path>
                        <path d="M179.084502,376.000443 L167.972636,376.000443 C166.924358,375.984807 165.913691,376.396222 165.166975,377.142552 C164.420259,377.888882 163.999887,378.907767 164,379.971026 C164,381.039576 164.418544,382.064362 165.163558,382.819941 C165.908572,383.57552 166.919027,384 167.972636,384 L179.084502,384 C180.132893,384.000115 181.13753,383.573781 181.873424,382.816475 C182.609318,382.05917 183.014981,381.034171 182.999563,379.971026 C183.015251,378.913165 182.607812,377.893961 181.870168,377.145855 C181.132523,376.39775 180.127571,375.984533 179.084502,376.000443 Z" id="Shape" stroke="#45413C" stroke-width="2.25"></path>
                        <path d="M189.039275,368 L177.960725,368 C175.773277,368 174,369.790861 174,372 C174,374.209139 175.773277,376 177.960725,376 L189.039275,376 C191.226723,376 193,374.209139 193,372 C193,369.790861 191.226723,368 189.039275,368 Z" id="Shape" fill="#141517" fill-rule="nonzero"></path>
                        <path d="M177.972639,372.019417 L189.084512,372.019417 C190.464894,372.037763 191.7337,372.790303 192.423831,374 C192.79336,373.406507 192.992685,372.720824 192.999576,372.019417 C193.014994,370.958795 192.609331,369.936227 191.873436,369.180717 C191.137542,368.425208 190.132904,367.999885 189.084512,368 L177.972639,368 C175.778611,368 174,369.799555 174,372.019417 C174.024072,372.726512 174.24347,373.412638 174.633319,374 C175.323451,372.790303 176.592256,372.037763 177.972639,372.019417 Z" id="Shape" fill="#6DD627" fill-rule="nonzero"></path>
                        <path d="M189.039275,368 L177.960725,368 C175.773277,368 174,369.790861 174,372 C174,374.209139 175.773277,376 177.960725,376 L189.039275,376 C191.226723,376 193,374.209139 193,372 C193,369.790861 191.226723,368 189.039275,368 Z" id="Shape" stroke="#45413C" stroke-width="2.25"></path>
                        <path d="M180.084502,360.000443 L168.972636,360.000443 C167.924358,359.984807 166.913691,360.396222 166.166975,361.142552 C165.420259,361.888882 164.999887,362.907767 165,363.971026 C165,365.039576 165.418544,366.064362 166.163558,366.819941 C166.908572,367.57552 167.919027,368 168.972636,368 L180.084502,368 C181.132893,368.000115 182.13753,367.573781 182.873424,366.816475 C183.609318,366.05917 184.014981,365.034171 183.999563,363.971026 C184.015251,362.913165 183.607812,361.893961 182.870168,361.145855 C182.132523,360.39775 181.127571,359.984533 180.084502,360.000443 Z" id="Shape" fill="#141517" fill-rule="nonzero"></path>
                        <path d="M168.901304,363.961478 L180.065916,363.961478 C181.461431,364.003425 182.733754,364.776459 183.421084,366 C183.794318,365.386047 183.99431,364.681288 183.999561,363.961478 C184.015323,362.906287 183.605951,361.889657 182.864804,361.14344 C182.123658,360.397224 181.113936,359.98505 180.065916,360.00092 L168.901304,360.00092 C167.510503,359.970341 166.213261,360.703829 165.515304,361.915435 C164.817348,363.127041 164.82916,364.624974 165.546136,365.82527 C166.275848,364.668769 167.540483,363.966266 168.901304,363.961478 Z" id="Shape" fill="#555A63" fill-rule="nonzero"></path>
                        <path d="M180.084502,360.000443 L168.972636,360.000443 C167.924358,359.984807 166.913691,360.396222 166.166975,361.142552 C165.420259,361.888882 164.999887,362.907767 165,363.971026 C165,365.039576 165.418544,366.064362 166.163558,366.819941 C166.908572,367.57552 167.919027,368 168.972636,368 L180.084502,368 C181.132893,368.000115 182.13753,367.573781 182.873424,366.816475 C183.609318,366.05917 184.014981,365.034171 183.999563,363.971026 C184.015251,362.913165 183.607812,361.893961 182.870168,361.145855 C182.132523,360.39775 181.127571,359.984533 180.084502,360.000443 Z" id="Shape" stroke="#45413C" stroke-width="2.25"></path>
                        <path d="M179.039275,384 L167.960725,384 C165.773277,384 164,385.790861 164,388 C164,390.209139 165.773277,392 167.960725,392 L179.039275,392 C181.226723,392 183,390.209139 183,388 C183,385.790861 181.226723,384 179.039275,384 Z" id="Shape" fill="#141517" fill-rule="nonzero"></path>
                        <path d="M167.972639,388.019417 L179.084512,388.019417 C180.464894,388.037763 181.7337,388.790303 182.423831,390 C182.79336,389.406507 182.992685,388.720824 182.999576,388.019417 C183.014994,386.958795 182.609331,385.936227 181.873436,385.180717 C181.137542,384.425208 180.132904,383.999885 179.084512,384 L167.972639,384 C166.919029,384 165.908573,384.423473 165.163559,385.17726 C164.418545,385.931047 164,386.953402 164,388.019417 C164.024072,388.726512 164.24347,389.412638 164.633319,390 C165.323451,388.790303 166.592256,388.037763 167.972639,388.019417 Z" id="Shape" fill="#555A63" fill-rule="nonzero"></path>
                        <path d="M179.039275,384 L167.960725,384 C165.773277,384 164,385.790861 164,388 C164,390.209139 165.773277,392 167.960725,392 L179.039275,392 C181.226723,392 183,390.209139 183,388 C183,385.790861 181.226723,384 179.039275,384 Z" id="Shape" stroke="#45413C" stroke-width="2.25"></path>
                        <ellipse id="Oval" fill="#45413C" fill-rule="nonzero" opacity="0.15" cx="106.5" cy="392" rx="26.5" ry="5"></ellipse>
                    </g>
                </g>
            </g>
        </g>
    </g>
</svg>